<svg width="42" height="42" viewBox="0 0 42 42" fill="none" xmlns="http://www.w3.org/2000/svg">
<path d="M5.25 28V17.5C5.25 16.5717 5.61875 15.6815 6.27513 15.0251C6.9315 14.3687 7.82174 14 8.75 14C9.67826 14 10.5685 14.3687 11.2249 15.0251C11.8813 15.6815 12.25 16.5717 12.25 17.5V28M5.25 22.75H12.25M17.5 14V24.5M17.5 24.5C17.5 25.4283 17.8688 26.3185 18.5251 26.9749C19.1815 27.6313 20.0717 28 21 28C21.9283 28 22.8185 27.6313 23.4749 26.9749C24.1313 26.3185 24.5 25.4283 24.5 24.5V22.75C24.5 21.8217 24.1313 20.9315 23.4749 20.2751C22.8185 19.6187 21.9283 19.25 21 19.25C20.0717 19.25 19.1815 19.6187 18.5251 20.2751C17.8688 20.9315 17.5 21.8217 17.5 22.75V24.5ZM36.281 21C35.8957 20.3328 35.3011 19.8114 34.5893 19.5165C33.8775 19.2217 33.0883 19.17 32.3441 19.3694C31.5999 19.5688 30.9423 20.0082 30.4733 20.6194C30.0043 21.2307 29.75 21.9796 29.75 22.75V24.5C29.7502 25.2686 30.0033 26.0158 30.4704 26.6262C30.9375 27.2366 31.5925 27.6763 32.3343 27.8774C33.0761 28.0785 33.8635 28.0298 34.5749 27.7388C35.2864 27.4479 35.8822 26.9308 36.2705 26.2675" stroke="#52119F" stroke-width="4" stroke-linecap="round" stroke-linejoin="round"/>
</svg>
