<svg width="32" height="32" viewBox="0 0 32 32" fill="none" xmlns="http://www.w3.org/2000/svg">
<circle cx="16" cy="16" r="16" fill="#24A0ED"/>
<path d="M13.2625 4.14951C11.9289 4.14951 10.8303 5.24807 10.8303 6.58175V16.1591L10.2984 15.6013L10.0957 15.4238C9.64458 14.9752 9.03424 14.7235 8.39804 14.7235C7.76184 14.7235 7.15149 14.9752 6.70033 15.4238C6.25178 15.875 6 16.4853 6 17.1215C6 17.7577 6.25178 18.368 6.70033 18.8192V18.8443L13.3387 25.4065L13.389 25.4317L13.4141 25.4828C14.5806 26.3675 16.0038 26.8477 17.4679 26.8505H18.8624C19.7346 26.8523 20.5986 26.6818 21.4048 26.3489C22.211 26.0159 22.9435 25.5269 23.5602 24.9101C24.1769 24.2933 24.6658 23.5608 24.9987 22.7546C25.3315 21.9483 25.5019 21.0843 25.5 20.2121V13.8785C25.5 12.5448 24.4006 11.4462 23.0677 11.4462C22.7224 11.4462 22.4029 11.5411 22.1046 11.6741C21.8386 10.6201 20.8795 9.82475 19.7485 9.82475C19.1275 9.82475 18.5575 10.068 18.127 10.4579C17.684 10.0527 17.1059 9.82701 16.5055 9.82475C16.2286 9.82902 15.9544 9.88057 15.6948 9.97717V6.58175C15.6948 5.24807 14.5962 4.14951 13.2625 4.14951ZM13.2625 5.771C13.7125 5.771 14.0733 6.13179 14.0733 6.58175V15.5H15.6948V12.257C15.6948 11.807 16.0556 11.4462 16.5055 11.4462C16.9555 11.4462 17.3163 11.807 17.3163 12.257V15.5H18.9378V12.257C18.9378 11.807 19.2986 11.4462 19.7485 11.4462C20.1985 11.4462 20.5593 11.807 20.5593 12.257V15.5H22.257V13.8785C22.257 13.4285 22.6178 13.0677 23.0677 13.0677C23.5177 13.0677 23.8785 13.4285 23.8785 13.8785V20.2129C23.8785 23.0213 21.6708 25.229 18.8616 25.229H17.4687C16.281 25.229 15.2545 24.805 14.4024 24.1645L7.84024 17.6785C7.47946 17.3177 7.47946 16.9245 7.84024 16.5637C8.20184 16.2029 8.59424 16.2029 8.95502 16.5637L12.4518 20.0605V6.58175C12.4518 6.13179 12.8126 5.771 13.2625 5.771Z" fill="white"/>
</svg>
