<svg width="32" height="32" viewBox="0 0 32 32" fill="none" xmlns="http://www.w3.org/2000/svg">
<path d="M16.0001 29.6606C23.4601 29.6606 29.6607 23.4731 29.6607 16C29.6607 8.53999 23.4464 2.33942 15.9864 2.33942C8.5138 2.33942 2.34009 8.53999 2.34009 16C2.34009 23.4731 8.52695 29.6606 16.0001 29.6606ZM15.9875 18.0091C15.2772 18.0091 14.8892 17.5937 14.8618 16.8834L14.6744 10.2686C14.6475 9.53142 15.2098 9.0097 15.9732 9.0097C16.7235 9.0097 17.2989 9.54513 17.2727 10.2817C17.2458 11.0046 16.6567 18.0091 15.9875 18.0091ZM15.9869 22.9383C15.2098 22.9383 14.4864 22.3223 14.4864 21.4914C14.4864 20.6606 15.1967 20.0457 15.9869 20.0457C16.7635 20.0457 17.4864 20.648 17.4864 21.4914C17.4864 22.3354 16.7498 22.9383 15.9869 22.9383Z" fill="#52119F"/>
</svg>
