<svg width="55" height="55" viewBox="0 0 55 55" fill="none" xmlns="http://www.w3.org/2000/svg">
<path d="M4.58337 18.6198C4.58337 16.7205 5.33788 14.899 6.68092 13.5559C8.02395 12.2129 9.8455 11.4584 11.7448 11.4584H28.3594C30.2588 11.4584 32.0803 12.2129 33.4233 13.5559C34.7664 14.899 35.5209 16.7205 35.5209 18.6198V36.3802C35.5209 38.2796 34.7664 40.1011 33.4233 41.4442C32.0803 42.7872 30.2588 43.5417 28.3594 43.5417H11.7448C9.8455 43.5417 8.02395 42.7872 6.68092 41.4442C5.33788 40.1011 4.58337 38.2796 4.58337 36.3802V18.6198ZM44.581 40.5832L37.8125 35.9093V19.0885L44.581 14.4158C47.0514 12.7108 50.4213 14.4788 50.4213 17.4809V37.5181C50.4213 40.5201 47.0514 42.2882 44.581 40.5832Z" fill="#FFA726"/>
</svg>
