<svg width="24" height="24" viewBox="0 0 24 24" fill="none" xmlns="http://www.w3.org/2000/svg">
<path fill-rule="evenodd" clip-rule="evenodd" d="M7.99999 3.5C8.94999 3.5 9.78999 4.113 10.081 5.017L14.428 18.541C14.5462 18.9188 14.5103 19.3279 14.3281 19.6793C14.1459 20.0307 13.8323 20.2959 13.4554 20.417C13.0786 20.5381 12.6692 20.5054 12.3164 20.3259C11.9636 20.1465 11.696 19.8349 11.572 19.459L10.299 15.5H5.70099L4.42799 19.459C4.30395 19.8349 4.03637 20.1465 3.68358 20.3259C3.33078 20.5054 2.92135 20.5381 2.54453 20.417C2.1677 20.2959 1.85403 20.0307 1.67186 19.6793C1.48968 19.3279 1.45379 18.9188 1.57199 18.541L5.91899 5.017C6.06111 4.57691 6.33889 4.19311 6.71254 3.92059C7.08619 3.64808 7.53752 3.50085 7.99999 3.5ZM20.5 12C20.8978 12 21.2793 12.158 21.5606 12.4393C21.842 12.7206 22 13.1022 22 13.5V18.5C21.9999 18.7814 21.9207 19.0572 21.7714 19.2957C21.622 19.5343 21.4086 19.726 21.1554 19.849C20.9023 19.9719 20.6196 20.0212 20.3398 19.9912C20.06 19.9611 19.7942 19.8529 19.573 19.679C18.9647 19.9386 18.3014 20.0433 17.6427 19.9837C16.984 19.9242 16.3503 19.7022 15.7984 19.3377C15.2465 18.9731 14.7937 18.4775 14.4803 17.895C14.167 17.3125 14.003 16.6614 14.003 16C14.003 15.3386 14.167 14.6875 14.4803 14.105C14.7937 13.5225 15.2465 13.0269 15.7984 12.6623C16.3503 12.2978 16.984 12.0758 17.6427 12.0163C18.3014 11.9567 18.9647 12.0614 19.573 12.321C19.828 12.12 20.15 12 20.5 12ZM18 15C17.7348 15 17.4804 15.1054 17.2929 15.2929C17.1053 15.4804 17 15.7348 17 16C17 16.2652 17.1053 16.5196 17.2929 16.7071C17.4804 16.8946 17.7348 17 18 17C18.2652 17 18.5196 16.8946 18.7071 16.7071C18.8946 16.5196 19 16.2652 19 16C19 15.7348 18.8946 15.4804 18.7071 15.2929C18.5196 15.1054 18.2652 15 18 15ZM7.99999 8.346L6.66499 12.5H9.33499L7.99999 8.346Z" fill="#52119F"/>
</svg>
