<svg width="32" height="32" viewBox="0 0 32 32" fill="none" xmlns="http://www.w3.org/2000/svg">
<g clip-path="url(#clip0_120_4097)">
<path d="M0 16C0 11.7565 1.68571 7.68687 4.68629 4.68629C7.68687 1.68571 11.7565 0 16 0C20.2435 0 24.3131 1.68571 27.3137 4.68629C30.3143 7.68687 32 11.7565 32 16C32 20.2435 30.3143 24.3131 27.3137 27.3137C24.3131 30.3143 20.2435 32 16 32C11.7565 32 7.68687 30.3143 4.68629 27.3137C1.68571 24.3131 0 20.2435 0 16ZM10 13H14C14 12.7348 14.1054 12.4804 14.2929 12.2929C14.4804 12.1054 14.7348 12 15 12H16.292C16.4642 12.0001 16.6313 12.0583 16.7663 12.1653C16.9012 12.2723 16.9961 12.4217 17.0354 12.5894C17.0748 12.757 17.0564 12.933 16.9831 13.0889C16.9099 13.2447 16.7862 13.3713 16.632 13.448L14 14.764V18H18V17.236L18.422 17.024C19.3813 16.5438 20.1504 15.7538 20.6048 14.7821C21.0592 13.8103 21.1724 12.7137 20.926 11.6696C20.6795 10.6255 20.0879 9.69519 19.2469 9.02921C18.4059 8.36323 17.3648 8.00059 16.292 8H15C13.6739 8 12.4021 8.52678 11.4645 9.46447C10.5268 10.4021 10 11.6739 10 13ZM16 24C16.5304 24 17.0391 23.7893 17.4142 23.4142C17.7893 23.0391 18 22.5304 18 22C18 21.4696 17.7893 20.9609 17.4142 20.5858C17.0391 20.2107 16.5304 20 16 20C15.4696 20 14.9609 20.2107 14.5858 20.5858C14.2107 20.9609 14 21.4696 14 22C14 22.5304 14.2107 23.0391 14.5858 23.4142C14.9609 23.7893 15.4696 24 16 24Z" fill="#FFA726"/>
</g>
<defs>
<clipPath id="clip0_120_4097">
<rect width="32" height="32" fill="white"/>
</clipPath>
</defs>
</svg>
