<svg width="55" height="55" viewBox="0 0 55 55" fill="none" xmlns="http://www.w3.org/2000/svg">
<g filter="url(#filter0_d_16_507)">
<path d="M16.5999 43.7C15.7999 44.7 14.8399 45.38 13.7199 45.74C12.6399 46.14 11.3399 46 9.81988 45.32C8.37988 44.64 7.67988 43.78 7.71988 42.74C7.75988 41.74 8.17988 40.66 8.97988 39.5C10.0199 37.94 11.2199 36.14 12.5799 34.1C13.9399 32.06 15.3599 29.92 16.8399 27.68C18.3599 25.44 19.8999 23.16 21.4599 20.84C23.0199 18.48 24.5399 16.2 26.0199 14C27.4999 11.8 28.8999 9.74 30.2199 7.82C31.5399 5.86 32.6999 4.14 33.6999 2.66C34.0199 2.18 34.3399 1.78 34.6599 1.46C34.9799 1.14 35.3399 0.919998 35.7399 0.799997C36.1799 0.679998 36.6999 0.659999 37.2999 0.739998C37.8999 0.779997 38.6399 0.959997 39.5199 1.28C40.5999 1.68 41.3799 2.1 41.8599 2.54C42.3399 2.98 42.6199 3.44 42.6999 3.92C42.7799 4.36 42.7199 4.82 42.5199 5.3C42.3599 5.78 42.1399 6.26 41.8599 6.74C40.9399 8.3 39.7599 10.18 38.3199 12.38C36.9199 14.58 35.3999 16.92 33.7599 19.4C32.1199 21.84 30.4199 24.32 28.6599 26.84C26.9399 29.36 25.2999 31.72 23.7399 33.92C22.1799 36.12 20.7599 38.1 19.4799 39.86C18.2399 41.58 17.2799 42.86 16.5999 43.7ZM8.49988 2.72C9.77988 2.08 11.2199 1.72 12.8199 1.64C14.4599 1.6 15.9199 1.84 17.1999 2.36C18.5199 2.88 19.6399 3.62 20.5599 4.58C21.4799 5.5 22.1799 6.6 22.6599 7.88C23.1799 9.16 23.4399 10.5 23.4399 11.9C23.4399 13.34 23.1799 14.7 22.6599 15.98C22.1799 17.22 21.4799 18.3 20.5599 19.22C19.6799 20.14 18.5999 20.86 17.3199 21.38C16.0799 21.9 14.6799 22.18 13.1199 22.22C11.6799 22.26 10.3399 22.04 9.09988 21.56C7.89988 21.08 6.83988 20.42 5.91988 19.58C5.03988 18.7 4.31988 17.68 3.75988 16.52C3.19988 15.32 2.89988 14.02 2.85988 12.62C2.81988 11.26 2.99988 9.94 3.39988 8.66C3.83988 7.34 4.47988 6.18 5.31988 5.18C6.19988 4.14 7.25988 3.32 8.49988 2.72ZM13.2999 15.92C14.2599 15.84 14.9799 15.4 15.4599 14.6C15.9399 13.76 16.1399 12.76 16.0599 11.6C15.9799 10.44 15.6399 9.56 15.0399 8.96C14.4399 8.32 13.6999 8.02 12.8199 8.06C11.8999 8.1 11.1999 8.5 10.7199 9.26C10.2799 10.02 10.0599 10.98 10.0599 12.14C10.0599 13.3 10.3399 14.24 10.8999 14.96C11.4999 15.68 12.2999 16 13.2999 15.92ZM33.5199 25.28C34.7999 24.64 36.2399 24.28 37.8399 24.2C39.4799 24.16 40.9399 24.4 42.2199 24.92C43.5399 25.44 44.6599 26.18 45.5799 27.14C46.4999 28.06 47.1999 29.16 47.6799 30.44C48.1999 31.72 48.4599 33.06 48.4599 34.46C48.4599 35.9 48.1999 37.26 47.6799 38.54C47.1999 39.78 46.4999 40.86 45.5799 41.78C44.6999 42.7 43.6199 43.42 42.3399 43.94C41.0999 44.46 39.6999 44.74 38.1399 44.78C36.6999 44.82 35.3599 44.6 34.1199 44.12C32.9199 43.64 31.8599 42.98 30.9399 42.14C30.0599 41.26 29.3399 40.24 28.7799 39.08C28.2199 37.88 27.9199 36.58 27.8799 35.18C27.8399 33.82 28.0199 32.5 28.4199 31.22C28.8599 29.9 29.4999 28.74 30.3399 27.74C31.2199 26.7 32.2799 25.88 33.5199 25.28ZM38.3199 38.48C39.2799 38.4 39.9999 37.96 40.4799 37.16C40.9599 36.32 41.1599 35.32 41.0799 34.16C40.9999 33 40.6599 32.12 40.0599 31.52C39.4599 30.88 38.7199 30.58 37.8399 30.62C36.9199 30.66 36.2199 31.06 35.7399 31.82C35.2999 32.58 35.0799 33.54 35.0799 34.7C35.0799 35.86 35.3599 36.8 35.9199 37.52C36.5199 38.24 37.3199 38.56 38.3199 38.48Z" fill="#52119F"/>
</g>
<defs>
<filter id="filter0_d_16_507" x="0.799927" y="0.620117" width="53.6599" height="53.72" filterUnits="userSpaceOnUse" color-interpolation-filters="sRGB">
<feFlood flood-opacity="0" result="BackgroundImageFix"/>
<feColorMatrix in="SourceAlpha" type="matrix" values="0 0 0 0 0 0 0 0 0 0 0 0 0 0 0 0 0 0 127 0" result="hardAlpha"/>
<feOffset dx="2" dy="4"/>
<feGaussianBlur stdDeviation="2"/>
<feComposite in2="hardAlpha" operator="out"/>
<feColorMatrix type="matrix" values="0 0 0 0 0 0 0 0 0 0 0 0 0 0 0 0 0 0 0.25 0"/>
<feBlend mode="normal" in2="BackgroundImageFix" result="effect1_dropShadow_16_507"/>
<feBlend mode="normal" in="SourceGraphic" in2="effect1_dropShadow_16_507" result="shape"/>
</filter>
</defs>
</svg>
