<svg width="42" height="42" viewBox="0 0 42 42" fill="none" xmlns="http://www.w3.org/2000/svg">
<path d="M11.375 21C13.9277 21 16.3759 22.0141 18.1809 23.8191C19.9859 25.6241 21 28.0723 21 30.625C21 33.1777 19.9859 35.6259 18.1809 37.4309C16.3759 39.2359 13.9277 40.25 11.375 40.25C8.82229 40.25 6.37413 39.2359 4.5691 37.4309C2.76406 35.6259 1.75 33.1777 1.75 30.625C1.75 28.0723 2.76406 25.6241 4.5691 23.8191C6.37413 22.0141 8.82229 21 11.375 21ZM29.3108 3.5C30.355 3.5 31.3566 3.91484 32.095 4.65327C32.8334 5.39169 33.2483 6.39321 33.2483 7.4375V34.5625C33.2483 35.6068 32.8334 36.6083 32.095 37.3467C31.3566 38.0852 30.355 38.5 29.3108 38.5H19.5808C21.3915 36.6146 22.4975 34.163 22.7128 31.5578C22.9281 28.9525 22.2395 26.3526 20.7629 24.1955C19.2863 22.0384 17.1117 20.4557 14.6052 19.7137C12.0986 18.9717 9.41288 19.1157 7 20.1215V7.43925C6.99977 6.92188 7.1015 6.40953 7.29939 5.93149C7.49727 5.45346 7.78743 5.01911 8.15327 4.65327C8.51911 4.28743 8.95346 3.99727 9.43149 3.79939C9.90953 3.6015 10.4219 3.49977 10.9392 3.5H29.3108ZM11.375 34.79C11.2278 34.7841 11.0809 34.808 10.9432 34.8603C10.8055 34.9125 10.6797 34.9921 10.5735 35.0942C10.4673 35.1962 10.3827 35.3187 10.325 35.4542C10.2673 35.5898 10.2375 35.7356 10.2375 35.8829C10.2375 36.0302 10.2673 36.176 10.325 36.3115C10.3827 36.4471 10.4673 36.5695 10.5735 36.6716C10.6797 36.7737 10.8055 36.8532 10.9432 36.9055C11.0809 36.9577 11.2278 36.9816 11.375 36.9757C11.6573 36.9645 11.9242 36.8444 12.12 36.6407C12.3157 36.4369 12.425 36.1654 12.425 35.8829C12.425 35.6004 12.3157 35.3288 12.12 35.1251C11.9242 34.9214 11.6573 34.8013 11.375 34.79ZM11.375 24.5053C9.541 24.5053 8.113 25.935 8.13225 27.9247C8.13457 28.1568 8.22898 28.3785 8.39472 28.5409C8.56045 28.7034 8.78394 28.7933 9.016 28.791C9.24806 28.7887 9.4697 28.6943 9.63216 28.5285C9.79461 28.3628 9.88457 28.1393 9.88225 27.9072C9.87175 26.8957 10.5122 26.2553 11.375 26.2553C12.201 26.2553 12.8678 26.9413 12.8678 27.9178C12.8678 28.3098 12.7365 28.6002 12.313 29.1025L12.138 29.3003L11.6743 29.8078C10.8273 30.7563 10.5 31.3687 10.5 32.3767C10.5 32.6088 10.5922 32.8314 10.7563 32.9955C10.9204 33.1596 11.1429 33.2517 11.375 33.2517C11.6071 33.2517 11.8296 33.1596 11.9937 32.9955C12.1578 32.8314 12.25 32.6088 12.25 32.3767C12.25 31.969 12.383 31.6715 12.817 31.1605L12.992 30.9592L13.4575 30.4517C14.294 29.5155 14.6177 28.9083 14.6177 27.9178C14.6177 25.9858 13.1793 24.5053 11.375 24.5053ZM36.3125 26.2535C36.6297 26.2535 36.9361 26.3684 37.1751 26.5768C37.4142 26.7853 37.5696 27.0733 37.6128 27.3875L37.625 27.566V30.1875C37.625 30.5047 37.5101 30.8111 37.3017 31.0501C37.0932 31.2892 36.8052 31.4446 36.491 31.4878L36.3125 31.5H35V26.2535H36.3125ZM36.3125 19.2535C36.6297 19.2535 36.9361 19.3684 37.1751 19.5768C37.4142 19.7853 37.5696 20.0733 37.6128 20.3875L37.625 20.566V23.1875C37.625 23.5047 37.5101 23.8111 37.3017 24.0501C37.0932 24.2892 36.8052 24.4446 36.491 24.4878L36.3125 24.5H35V19.2535H36.3125ZM36.3125 12.2535C36.6297 12.2535 36.9361 12.3684 37.1751 12.5768C37.4142 12.7853 37.5696 13.0733 37.6128 13.3875L37.625 13.566V16.1875C37.625 16.5047 37.5101 16.8111 37.3017 17.0501C37.0932 17.2892 36.8052 17.4446 36.491 17.4878L36.3125 17.5H35V12.2535H36.3125ZM25.809 9.61975H14.441C14.1238 9.61976 13.8174 9.73462 13.5784 9.94309C13.3393 10.1516 13.1839 10.4395 13.1407 10.7537L13.1285 10.9323V13.5642C13.1285 14.2292 13.6238 14.777 14.2643 14.8645L14.441 14.8768H25.809C26.1262 14.8767 26.4326 14.7619 26.6716 14.5534C26.9107 14.3449 27.0661 14.057 27.1093 13.7428L27.1215 13.5642V10.9323C27.1215 10.5842 26.9832 10.2503 26.7371 10.0042C26.4909 9.75803 26.1571 9.61975 25.809 9.61975Z" fill="#52119F"/>
</svg>
