<svg width="42" height="42" viewBox="0 0 42 42" fill="none" xmlns="http://www.w3.org/2000/svg">
<g clip-path="url(#clip0_837_204)">
<path d="M0 4.2V29.4C0 31.71 1.89 33.6 4.2 33.6H33.6L42 42V4.2C42 1.89 40.11 0 37.8 0H4.2C1.89 0 0 1.89 0 4.2ZM15.75 11.55C15.75 13.23 14.28 14.7 12.6 14.7C10.92 14.7 9.45 13.23 9.45 11.55C9.45 9.87 10.92 8.4 12.6 8.4C14.28 8.4 15.75 9.87 15.75 11.55ZM32.55 11.55C32.55 13.23 31.08 14.7 29.4 14.7C27.72 14.7 26.25 13.23 26.25 11.55C26.25 9.87 27.72 8.4 29.4 8.4C31.08 8.4 32.55 9.87 32.55 11.55ZM9.24 18.9H32.97C31.29 23.73 26.67 25.2 21.21 25.2C15.75 25.2 10.92 23.73 9.24 18.9Z" fill="#52119F"/>
</g>
<defs>
<clipPath id="clip0_837_204">
<rect width="42" height="42" fill="white"/>
</clipPath>
</defs>
</svg>
