<svg width="55" height="55" viewBox="0 0 55 55" fill="none" xmlns="http://www.w3.org/2000/svg">
<path d="M14.8958 27.4999C18.2386 27.4999 21.4445 28.8279 23.8083 31.1916C26.172 33.5553 27.5 36.7613 27.5 40.1041C27.5 43.4469 26.172 46.6528 23.8083 49.0166C21.4445 51.3803 18.2386 52.7083 14.8958 52.7083C11.553 52.7083 8.34704 51.3803 5.9833 49.0166C3.61956 46.6528 2.29163 43.4469 2.29163 40.1041C2.29163 36.7613 3.61956 33.5553 5.9833 31.1916C8.34704 28.8279 11.553 27.4999 14.8958 27.4999ZM38.3831 4.58325C39.7506 4.58325 41.0621 5.1265 42.0291 6.09348C42.9961 7.06047 43.5393 8.37198 43.5393 9.7395V45.2603C43.5393 46.6279 42.9961 47.9394 42.0291 48.9064C41.0621 49.8733 39.7506 50.4166 38.3831 50.4166H25.6414C28.0126 47.9476 29.461 44.7372 29.7429 41.3256C30.0249 37.9139 29.1232 34.5093 27.1895 31.6845C25.2558 28.8597 22.4082 26.7872 19.1258 25.8155C15.8433 24.8439 12.3264 25.0324 9.16663 26.3495V9.74179C9.16633 9.06428 9.29955 8.39335 9.55868 7.76735C9.81782 7.14135 10.1978 6.57256 10.6769 6.09348C11.1559 5.61441 11.7247 5.23444 12.3507 4.97531C12.9767 4.71618 13.6477 4.58295 14.3252 4.58325H38.3831ZM14.8958 45.5583C14.703 45.5505 14.5107 45.5818 14.3303 45.6503C14.15 45.7187 13.9853 45.8229 13.8462 45.9566C13.7071 46.0902 13.5964 46.2506 13.5208 46.4281C13.4452 46.6056 13.4062 46.7965 13.4062 46.9894C13.4062 47.1823 13.4452 47.3732 13.5208 47.5507C13.5964 47.7282 13.7071 47.8886 13.8462 48.0222C13.9853 48.1559 14.15 48.2601 14.3303 48.3285C14.5107 48.397 14.703 48.4283 14.8958 48.4205C15.2654 48.4058 15.615 48.2485 15.8713 47.9817C16.1277 47.715 16.2708 47.3593 16.2708 46.9894C16.2708 46.6194 16.1277 46.2638 15.8713 45.9971C15.615 45.7303 15.2654 45.573 14.8958 45.5583ZM14.8958 32.0901C12.4941 32.0901 10.6241 33.9624 10.6493 36.568C10.6524 36.8719 10.776 37.1622 10.993 37.3749C11.2101 37.5877 11.5027 37.7055 11.8066 37.7024C12.1105 37.6994 12.4008 37.5757 12.6135 37.3587C12.8262 37.1417 12.944 36.849 12.941 36.5451C12.9273 35.2205 13.766 34.3818 14.8958 34.3818C15.9775 34.3818 16.8506 35.2801 16.8506 36.5589C16.8506 37.0722 16.6787 37.4526 16.1241 38.1103L15.895 38.3693L15.2877 39.0339C14.1785 40.276 13.75 41.078 13.75 42.398C13.75 42.7019 13.8707 42.9934 14.0856 43.2083C14.3005 43.4232 14.5919 43.5439 14.8958 43.5439C15.1997 43.5439 15.4911 43.4232 15.706 43.2083C15.9209 42.9934 16.0416 42.7019 16.0416 42.398C16.0416 41.8641 16.2158 41.4745 16.7841 40.8053L17.0133 40.5418L17.6229 39.8772C18.7183 38.6512 19.1423 37.856 19.1423 36.5589C19.1423 34.0289 17.2585 32.0901 14.8958 32.0901ZM47.552 34.3795C47.9674 34.3795 48.3687 34.5299 48.6817 34.8029C48.9947 35.0759 49.1983 35.453 49.2548 35.8645L49.2708 36.0983V39.5312C49.2708 39.9465 49.1204 40.3478 48.8474 40.6608C48.5744 40.9738 48.1973 41.1774 47.7858 41.2339L47.552 41.2499H45.8333V34.3795H47.552ZM47.552 25.2128C47.9674 25.2129 48.3687 25.3633 48.6817 25.6363C48.9947 25.9093 49.1983 26.2864 49.2548 26.6978L49.2708 26.9316V30.3645C49.2708 30.7798 49.1204 31.1811 48.8474 31.4941C48.5744 31.8071 48.1973 32.0107 47.7858 32.0672L47.552 32.0833H45.8333V25.2128H47.552ZM47.552 16.0462C47.9674 16.0462 48.3687 16.1966 48.6817 16.4696C48.9947 16.7426 49.1983 17.1197 49.2548 17.5312L49.2708 17.7649V21.1978C49.2708 21.6132 49.1204 22.0145 48.8474 22.3275C48.5744 22.6405 48.1973 22.8441 47.7858 22.9005L47.552 22.9166H45.8333V16.0462H47.552ZM33.7975 12.5972H18.9108C18.4955 12.5972 18.0942 12.7476 17.7812 13.0206C17.4681 13.2936 17.2646 13.6707 17.2081 14.0822L17.192 14.316V17.7626C17.192 18.6335 17.8406 19.3508 18.6793 19.4653L18.9108 19.4814H33.7975C34.2128 19.4814 34.6141 19.3309 34.9271 19.058C35.2401 18.785 35.4437 18.4079 35.5002 17.9964L35.5162 17.7626V14.316C35.5162 13.8601 35.3351 13.4229 35.0128 13.1006C34.6905 12.7783 34.2533 12.5972 33.7975 12.5972Z" fill="#FFA726"/>
</svg>
