<svg width="40" height="40" viewBox="0 0 40 40" fill="none" xmlns="http://www.w3.org/2000/svg">
<rect width="40" height="40" rx="6" fill="#52119F"/>
<path d="M30.0615 27.9395C30.6468 28.5253 30.6471 29.4759 30.0615 30.0615C29.4759 30.6471 28.5253 30.6468 27.9395 30.0615L30.0615 27.9395ZM19 9.5C24.2467 9.5 28.5 13.7533 28.5 19C28.5 21.0816 27.8278 23.005 26.6924 24.5703L30.0615 27.9395L29 29L27.9395 30.0615L24.5703 26.6924C23.005 27.8278 21.0816 28.5 19 28.5C13.7533 28.5 9.5 24.2467 9.5 19C9.5 13.7533 13.7533 9.5 19 9.5ZM19 12.5C15.4101 12.5 12.5 15.4101 12.5 19C12.5 22.5899 15.4101 25.5 19 25.5C20.745 25.5 22.3275 24.8105 23.4951 23.6914C23.5244 23.6562 23.5568 23.6229 23.5898 23.5898C23.6229 23.5568 23.6561 23.5245 23.6914 23.4951C24.8105 22.3275 25.5 20.745 25.5 19C25.5 15.4101 22.5899 12.5 19 12.5Z" fill="#FFA726"/>
</svg>
