<svg width="55" height="56" viewBox="0 0 55 56" fill="none" xmlns="http://www.w3.org/2000/svg">
<path d="M6.875 37.1666V23.4166C6.875 22.201 7.35789 21.0352 8.21743 20.1757C9.07697 19.3161 10.2428 18.8333 11.4583 18.8333C12.6739 18.8333 13.8397 19.3161 14.6992 20.1757C15.5588 21.0352 16.0417 22.201 16.0417 23.4166V37.1666M6.875 30.2916H16.0417M22.9167 18.8333V32.5833M22.9167 32.5833C22.9167 33.7988 23.3996 34.9646 24.2591 35.8242C25.1186 36.6837 26.2844 37.1666 27.5 37.1666C28.7156 37.1666 29.8814 36.6837 30.7409 35.8242C31.6004 34.9646 32.0833 33.7988 32.0833 32.5833V30.2916C32.0833 29.076 31.6004 27.9102 30.7409 27.0507C29.8814 26.1911 28.7156 25.7083 27.5 25.7083C26.2844 25.7083 25.1186 26.1911 24.2591 27.0507C23.3996 27.9102 22.9167 29.076 22.9167 30.2916V32.5833ZM47.5108 27.9999C47.0063 27.1262 46.2276 26.4434 45.2955 26.0573C44.3634 25.6712 43.3299 25.6035 42.3554 25.8646C41.3809 26.1258 40.5197 26.7011 39.9055 27.5016C39.2913 28.302 38.9584 29.2827 38.9583 30.2916V32.5833C38.9585 33.5898 39.2901 34.5682 39.9017 35.3676C40.5133 36.1669 41.3711 36.7427 42.3425 37.006C43.314 37.2693 44.3451 37.2056 45.2767 36.8246C46.2083 36.4435 46.9886 35.7665 47.4971 34.8978" stroke="#FFA726" stroke-width="4" stroke-linecap="round" stroke-linejoin="round"/>
</svg>
