<svg width="55" height="55" viewBox="0 0 55 55" fill="none" xmlns="http://www.w3.org/2000/svg">
<path d="M27.5 4.58337C40.1569 4.58337 50.4167 14.8432 50.4167 27.5C50.4167 40.1569 40.1569 50.4167 27.5 50.4167C14.8432 50.4167 4.58337 40.1569 4.58337 27.5C4.58337 14.8432 14.8432 4.58337 27.5 4.58337ZM27.5 13.75C26.8923 13.75 26.3094 13.9915 25.8796 14.4213C25.4498 14.851 25.2084 15.4339 25.2084 16.0417V27.5C25.2085 28.1078 25.45 28.6906 25.8798 29.1202L32.7548 35.9952C33.187 36.4127 33.7659 36.6437 34.3668 36.6385C34.9677 36.6332 35.5424 36.3922 35.9673 35.9673C36.3922 35.5424 36.6332 34.9677 36.6385 34.3668C36.6437 33.7659 36.4127 33.187 35.9952 32.7548L29.7917 26.5513V16.0417C29.7917 15.4339 29.5503 14.851 29.1205 14.4213C28.6907 13.9915 28.1078 13.75 27.5 13.75Z" fill="#FFA726"/>
</svg>
