<svg width="40" height="40" viewBox="0 0 40 40" fill="none" xmlns="http://www.w3.org/2000/svg">
<circle cx="20" cy="20" r="20" fill="#52119F"/>
<path fill-rule="evenodd" clip-rule="evenodd" d="M20 9C16.9318 9 14.4444 11.4873 14.4444 14.5556C14.4444 17.6238 16.9318 20.1111 20 20.1111C23.0682 20.1111 25.5556 17.6238 25.5556 14.5556C25.5556 11.4873 23.0682 9 20 9ZM16.6667 14.5556C16.6667 12.7146 18.1591 11.2222 20 11.2222C21.841 11.2222 23.3333 12.7146 23.3333 14.5556C23.3333 16.3965 21.841 17.8889 20 17.8889C18.1591 17.8889 16.6667 16.3965 16.6667 14.5556Z" fill="#FFA726"/>
<path d="M15.5556 22.3333C14.0821 22.3333 12.6691 22.9187 11.6272 23.9605C10.5853 25.0024 10 26.4155 10 27.8889V30.1111C10 30.7248 10.4975 31.2222 11.1111 31.2222C11.7248 31.2222 12.2222 30.7248 12.2222 30.1111V27.8889C12.2222 27.0048 12.5734 26.157 13.1985 25.5319C13.8237 24.9067 14.6715 24.5556 15.5556 24.5556H24.4444C25.3285 24.5556 26.1763 24.9067 26.8015 25.5319C27.4266 26.157 27.7778 27.0048 27.7778 27.8889V30.1111C27.7778 30.7248 28.2752 31.2222 28.8889 31.2222C29.5025 31.2222 30 30.7248 30 30.1111V27.8889C30 26.4155 29.4147 25.0024 28.3728 23.9605C27.3309 22.9187 25.9179 22.3333 24.4444 22.3333H15.5556Z" fill="#FFA726"/>
</svg>
