<svg width="25" height="25" viewBox="0 0 25 25" fill="none" xmlns="http://www.w3.org/2000/svg">
<path d="M14.01 3.80001C14.1665 3.68805 14.3497 3.61911 14.5411 3.60007C14.7326 3.58102 14.9258 3.61255 15.1012 3.69149C15.2767 3.77043 15.4285 3.89403 15.5412 4.04994C15.654 4.20585 15.7239 4.38863 15.744 4.58001L15.75 4.69401V20.306C15.7501 20.4984 15.6996 20.6875 15.6038 20.8544C15.5079 21.0212 15.3699 21.16 15.2036 21.2569C15.0374 21.3537 14.8486 21.4053 14.6561 21.4064C14.4637 21.4074 14.2744 21.358 14.107 21.263L14.011 21.201L7.43 16.5H4.75C4.24542 16.5002 3.75943 16.3096 3.38945 15.9665C3.01947 15.6234 2.79284 15.1532 2.755 14.65L2.75 14.5V10.5C2.74984 9.99543 2.94041 9.50944 3.2835 9.13946C3.62659 8.76948 4.09684 8.54285 4.6 8.50501L4.75 8.50001H7.43L14.01 3.80001ZM20.417 7.28301C21.151 7.93957 21.7381 8.74361 22.1401 9.64258C22.5422 10.5416 22.75 11.5152 22.75 12.5C22.75 13.4848 22.5422 14.4585 22.1401 15.3574C21.7381 16.2564 21.151 17.0604 20.417 17.717C20.3194 17.806 20.2051 17.8748 20.0808 17.9195C19.9564 17.9641 19.8245 17.9836 19.6926 17.9769C19.5606 17.9702 19.4313 17.9375 19.3121 17.8806C19.1929 17.8236 19.0862 17.7436 18.9981 17.6452C18.9099 17.5468 18.8422 17.4319 18.7987 17.3071C18.7553 17.1824 18.737 17.0503 18.7449 16.9184C18.7528 16.7865 18.7867 16.6575 18.8448 16.5389C18.9028 16.4202 18.9838 16.3142 19.083 16.227C19.6074 15.758 20.027 15.1836 20.3142 14.5414C20.6015 13.8992 20.75 13.2036 20.75 12.5C20.75 11.02 20.108 9.69001 19.083 8.77301C18.9838 8.68581 18.9028 8.57981 18.8448 8.46114C18.7867 8.34247 18.7528 8.21348 18.7449 8.08161C18.737 7.94974 18.7553 7.81762 18.7987 7.69287C18.8422 7.56812 18.9099 7.45322 18.9981 7.35479C19.0862 7.25637 19.1929 7.17639 19.3121 7.11946C19.4313 7.06252 19.5606 7.02978 19.6926 7.0231C19.8245 7.01643 19.9564 7.03596 20.0808 7.08057C20.2051 7.12518 20.3194 7.19398 20.417 7.28301ZM18.417 9.51901C18.8362 9.89407 19.1717 10.3533 19.4013 10.8668C19.631 11.3803 19.7498 11.9365 19.75 12.499C19.7501 13.0619 19.6315 13.6184 19.4018 14.1323C19.1721 14.6461 18.8365 15.1057 18.417 15.481C18.2274 15.6494 17.9808 15.7395 17.7273 15.733C17.4737 15.7265 17.2321 15.6239 17.0514 15.4459C16.8706 15.268 16.7643 15.028 16.7538 14.7746C16.7433 14.5212 16.8296 14.2733 16.995 14.081L17.083 13.991C17.493 13.623 17.75 13.092 17.75 12.5C17.7502 11.9881 17.554 11.4956 17.202 11.124L17.083 11.009C16.9838 10.9218 16.9028 10.8158 16.8448 10.6971C16.7867 10.5785 16.7528 10.4495 16.7449 10.3176C16.737 10.1857 16.7553 10.0536 16.7987 9.92887C16.8422 9.80412 16.9099 9.68922 16.9981 9.5908C17.0862 9.49238 17.1929 9.41239 17.3121 9.35546C17.4313 9.29852 17.5606 9.26578 17.6926 9.2591C17.8245 9.25243 17.9564 9.27196 18.0808 9.31657C18.2051 9.36118 18.3194 9.42998 18.417 9.51901Z" fill="#141525"/>
</svg>
